<svg width="18" height="18" viewBox="0 0 18 18" fill="none" xmlns="http://www.w3.org/2000/svg">
<path d="M17.19 0.403334C16.67 -0.116666 15.83 -0.116666 15.31 0.403334L8.79 6.91L2.27 0.39C1.75 -0.13 0.91 -0.13 0.39 0.39C-0.13 0.91 -0.13 1.75 0.39 2.27L6.91 8.79L0.39 15.31C-0.13 15.83 -0.13 16.67 0.39 17.19C0.91 17.71 1.75 17.71 2.27 17.19L8.79 10.67L15.31 17.19C15.83 17.71 16.67 17.71 17.19 17.19C17.71 16.67 17.71 15.83 17.19 15.31L10.67 8.79L17.19 2.27C17.6967 1.76333 17.6967 0.91 17.19 0.403334V0.403334Z" fill="#111322"/>
</svg>
