<svg width="22" height="22" viewBox="0 0 22 22" fill="none" xmlns="http://www.w3.org/2000/svg">
<path d="M19.5312 0H2.34375C1.04932 0 0 1.04932 0 2.34375V19.5312C0 20.8257 1.04932 21.875 2.34375 21.875H19.5312C20.8257 21.875 21.875 20.8257 21.875 19.5312V2.34375C21.875 1.04932 20.8257 0 19.5312 0ZM8.69712 11.2355C4.26899 8.02183 4.31411 8.01372 3.125 7.08823V5.85938C3.125 5.21216 3.64966 4.6875 4.29688 4.6875H17.5781C18.2253 4.6875 18.75 5.21216 18.75 5.85938V7.08823C17.56 8.01445 17.6058 8.02202 13.1779 11.2356C12.6652 11.6094 11.6451 12.511 10.9375 12.5C10.2293 12.5106 9.2106 11.61 8.69712 11.2355ZM18.75 9.07104V16.0156C18.75 16.6628 18.2253 17.1875 17.5781 17.1875H4.29688C3.64966 17.1875 3.125 16.6628 3.125 16.0156V9.07104C3.80654 9.59809 4.75239 10.3033 7.77847 12.4995C8.46997 13.0044 9.63271 14.069 10.9374 14.0625C12.2502 14.069 13.4294 12.9862 14.0975 12.4987C17.1228 10.3032 18.0685 9.59805 18.75 9.07104Z" fill="#A4A1AA"/>
</svg>
