<svg width="17" height="17" viewBox="0 0 17 17" fill="none" xmlns="http://www.w3.org/2000/svg">
<path d="M14.025 5.95C15.6655 5.95 17 4.6155 17 2.975C17 1.3345 15.6655 0 14.025 0C12.3845 0 11.05 1.3345 11.05 2.975C11.05 4.6155 12.3845 5.95 14.025 5.95ZM15.3 12.75V7.4715C14.875 7.5905 14.45 7.65 14.025 7.65C13.8805 7.65 13.7445 7.65 13.6 7.65V12.75C13.6 14.161 12.461 15.3 11.05 15.3H4.25C2.839 15.3 1.7 14.161 1.7 12.75V5.95C1.7 4.539 2.839 3.4 4.25 3.4H9.35C9.35 3.264 9.35 3.1195 9.35 2.975C9.35 2.55 9.4095 2.125 9.5285 1.7H4.25C1.904 1.7 0 3.604 0 5.95V12.75C0 15.096 1.904 17 4.25 17H11.05C13.396 17 15.3 15.096 15.3 12.75Z" fill="black"/>
</svg>
