<svg width="24" height="24" viewBox="0 0 24 24" fill="none" xmlns="http://www.w3.org/2000/svg">
<path d="M7.06982 15.9636V10.636H2V8.4448H7.06982V3.07422H9.3899V8.4448L14.3523 8.44479V10.636L9.3899 10.636V15.9636H7.06982Z" fill="#FF8D72"/>
<path d="M17.7594 21.7207C17.0003 21.7207 16.3344 21.5776 15.7615 21.2911C15.1887 21.019 14.7519 20.6108 14.4511 20.0666C14.1504 19.5367 14 18.8994 14 18.1547C14 17.4815 14.1289 16.7368 14.3867 15.9205C14.6588 15.1042 15.1458 14.2664 15.8475 13.4071C16.5492 12.5478 17.5446 11.7243 18.8335 10.9366V4.25564H15.7186V2H21.3899V17.768C21.3899 18.5271 21.2467 19.2073 20.9603 19.8088C20.6882 20.4103 20.28 20.8757 19.7358 21.2052C19.2059 21.5489 18.547 21.7207 17.7594 21.7207ZM17.5875 19.4221C17.831 19.4221 18.0459 19.3577 18.232 19.2288C18.4182 19.0999 18.5614 18.9138 18.6617 18.6702C18.7619 18.4411 18.812 18.1619 18.812 17.8324V13.5575C18.0244 14.1876 17.4586 14.7892 17.1149 15.362C16.7712 15.9348 16.5636 16.4433 16.4919 16.8872C16.4203 17.3169 16.3845 17.6463 16.3845 17.8754C16.3845 18.3767 16.5062 18.7562 16.7497 19.014C16.9932 19.286 17.2725 19.4221 17.5875 19.4221Z" fill="#EA3C12"/>
</svg>
